<svg width="135" height="120" viewBox="0 0 135 120" fill="none" xmlns="http://www.w3.org/2000/svg">
<path fill-rule="evenodd" clip-rule="evenodd" d="M67.4126 70.6189C61.4057 70.6189 56.5361 65.72 56.5361 59.6768C56.5361 53.6337 61.4057 48.7347 67.4126 48.7347C73.4196 48.7347 78.2892 53.6337 78.2892 59.6768C78.2892 65.72 73.4196 70.6189 67.4126 70.6189ZM75.7372 39.4579C64.6378 34.8326 51.9125 40.1358 47.3149 51.3021C46.1441 54.1463 45.6167 57.0958 45.6596 59.9905V112.585L74.1217 83.8937L82.5801 75.3673C84.6424 73.3516 86.3406 70.8926 87.5104 68.0516C92.1079 56.8852 86.8366 44.0831 75.7372 39.4579Z" fill="#CC3247"/>
<path fill-rule="evenodd" clip-rule="evenodd" d="M4.27313 83.4551C-7.34836 52.2909 5.42304 16.9888 34.2377 0.630864C36.7196 -0.777557 39.8732 0.262443 41.0775 2.86034L44.1212 9.42665C16.5339 22.3677 4.59854 55.3572 17.461 83.1098L10.9372 86.1709C8.35483 87.3814 5.27342 86.1382 4.27313 83.4551Z" fill="#6DB4CE"/>
<path fill-rule="evenodd" clip-rule="evenodd" d="M93.748 116.494L90.7063 109.931C118.249 97.0085 130.208 63.9527 117.364 36.2432L123.889 33.1822C126.471 31.9717 129.552 33.2148 130.552 35.898C142.175 67.0622 129.402 102.364 100.588 118.723C98.1059 120.132 94.9523 119.092 93.748 116.494Z" fill="#6DB4CE"/>
<path fill-rule="evenodd" clip-rule="evenodd" d="M27.9768 78.1772C23.0654 67.5793 22.5485 55.6919 26.5235 44.7045C30.4995 33.7172 38.4903 24.9445 49.0236 20.0024L51.1319 24.5519C51.6813 25.7372 51.2115 27.1361 50.0699 27.7614C42.3386 31.9993 36.4782 38.8403 33.4407 47.2372C30.4022 55.6351 30.5215 64.6645 33.7358 72.9098C34.2098 74.1267 33.6762 75.5024 32.5001 76.0551L27.9768 78.1772Z" fill="#6DB4CE"/>
<path fill-rule="evenodd" clip-rule="evenodd" d="M85.8026 99.3503L83.6921 94.7988C83.1449 93.6166 83.6116 92.2188 84.75 91.5935C100.673 82.8535 107.7 63.4303 101.087 46.4388C100.614 45.224 101.15 43.8503 102.325 43.2988L106.849 41.1756C116.988 63.0524 107.547 89.1493 85.8026 99.3503Z" fill="#6DB4CE"/>
</svg>
