<?xml version="1.0" encoding="utf-8"?>
<!-- Generator: Adobe Illustrator 18.1.1, SVG Export Plug-In . SVG Version: 6.00 Build 0)  -->
<svg version="1.1" id="Layer_1" xmlns="http://www.w3.org/2000/svg" xmlns:xlink="http://www.w3.org/1999/xlink" x="0px" y="0px"
	 viewBox="0 0 960 560" enable-background="new 0 0 960 560" xml:space="preserve">
<g>
	<g>
		<g>
			<g>
				<path fill="#C74E52" d="M372.9,260.4c-10.6-4.4-22.8,0.6-27.2,11.3c-1.1,2.7-1.6,5.5-1.6,8.3v50l27.2-27.3l8.1-8.1
					c2-1.9,3.6-4.3,4.7-6.9C388.6,277,383.5,264.8,372.9,260.4z M365,290c-5.7,0-10.4-4.7-10.4-10.4s4.7-10.4,10.4-10.4
					c5.7,0,10.4,4.7,10.4,10.4S370.7,290,365,290z"/>
			</g>
		</g>
		<g>
			<path fill="#6FB4CD" d="M304.6,302.2c-11.1-29.6,1.1-63.1,28.6-78.7c2.4-1.3,5.4-0.4,6.5,2.1l2.9,6.2
				c-26.4,12.3-37.8,43.6-25.5,70l-6.2,2.9C308.5,306,305.6,304.8,304.6,302.2z"/>
		</g>
		<g>
			<path fill="#6FB4CD" d="M390.2,333.6l-2.9-6.2c26.3-12.3,37.8-43.7,25.5-70l6.2-2.9c2.5-1.2,5.4,0,6.4,2.6
				c11.1,29.6-1.1,63.1-28.6,78.7C394.3,337.1,391.3,336.1,390.2,333.6z"/>
		</g>
		<g>
			<path fill="#6FB4CD" d="M327.3,297.2c-4.7-10.1-5.2-21.4-1.4-31.8c3.8-10.4,11.4-18.8,21.5-23.5l2,4.3c0.5,1.1,0.1,2.5-1,3
				c-7.4,4-13,10.5-15.9,18.5c-2.9,8-2.8,16.6,0.3,24.4c0.5,1.2-0.1,2.5-1.2,3L327.3,297.2z"/>
		</g>
		<g>
			<path fill="#6FB4CD" d="M382.6,317.3l-2-4.3c-0.5-1.1-0.1-2.5,1-3c15.2-8.3,21.9-26.8,15.6-42.9c-0.5-1.2,0.1-2.5,1.2-3l4.3-2
				C412.4,282.8,403.3,307.6,382.6,317.3z"/>
		</g>
	</g>
	<g>
		<path fill="#003050" d="M450.1,321.4c-1.4,0-2.5-1.1-2.5-2.5v-57.6c0-1.4,1.1-2.5,2.5-2.5h15.6c8.2,0,13.6,1,17.8,3.3
			c3.7,2,9.8,6.9,9.8,16.9c0,7.2-3.1,13.1-8.8,16.5c-4.5,2.7-10.2,3.9-19.3,3.9h-3.4v19.4c0,1.4-1.1,2.5-2.5,2.5H450.1z
			 M465.9,287.3c4.9,0,7.8-0.2,9.9-1.4c2.2-1.2,3.3-3.4,3.3-6.1c0-3.2-1.3-5.4-3.8-6.6c-2.2-1-5.1-1.2-9.8-1.2h-3.7v15.3H465.9z"/>
		<path fill="#003050" d="M590.3,321.4c-1.4,0-2.5-1.1-2.5-2.5v-22c0-3.3-0.5-4.5-1.2-5.4c-0.9-1-2.1-1.5-3.7-1.5
			c-3,0-5.8,1.7-7.7,3.1v25.9c0,1.4-1.1,2.5-2.5,2.5H564c-1.4,0-2.5-1.1-2.5-2.5v-38c0-1.4,1.1-2.5,2.5-2.5h8.6
			c1.4,0,2.5,1.1,2.5,2.5v0.8c2.7-2.1,6.7-4.2,11.8-4.2c4.4,0,8.3,1.6,10.9,4.4c2.6,2.9,3.7,6.7,3.7,12.8v24.1
			c0,1.4-1.1,2.5-2.5,2.5H590.3z"/>
		<path fill="#003050" d="M625.8,322.3c-4.5,0-8.3-1.5-10.9-4.4c-2.5-2.8-3.7-6.8-3.7-12.9v-14.6h-4c-1.4,0-2.5-1.1-2.5-2.5v-7
			c0-1.4,1.1-2.5,2.5-2.5h4v-8.7c0-1.2,0.9-2.2,2-2.4l8.7-1.6c0.1,0,0.3,0,0.4,0c1.4,0,2.5,1.1,2.5,2.5v10.2h8.1
			c1.4,0,2.5,1.1,2.5,2.5v7c0,1.4-1.1,2.5-2.5,2.5h-8.1v13.3c0,4.6,1.2,6.4,4,6.4c1,0,2.1-0.2,3.3-0.6c0.3-0.1,0.5-0.1,0.8-0.1
			c1.4,0,2.5,1.1,2.5,2.5v6.4c0,0.9-0.5,1.8-1.3,2.2C631.9,321.6,628.7,322.3,625.8,322.3z"/>
		<path fill="#003050" d="M642,321.4c-1.4,0-2.5-1.1-2.5-2.5v-38c0-1.4,1.1-2.5,2.5-2.5h8.5c1.4,0,2.5,1.1,2.5,2.5v2.1
			c2.8-3.4,6.5-5.1,11.1-5.1c0.3,0,0.7,0,1,0c1.3,0.1,2.3,1.2,2.3,2.5v8.4c0,1.4-1.1,2.5-2.4,2.5c-0.1,0-0.2,0-0.3,0
			c-0.4,0-0.9-0.1-1.3-0.1c-4.3,0-7.5,1.4-10.1,4.5v23.1c0,1.4-1.1,2.5-2.5,2.5H642z"/>
		<path fill="#003050" d="M515.8,322.3c-9.1,0-17.2-5.4-20.7-13.8c-2.3-5.5-2.3-11.6,0-17.1c2.3-5.5,6.6-9.8,12.1-12.1
			c2.7-1.1,5.6-1.7,8.5-1.7c9.1,0,17.2,5.4,20.7,13.8c4.7,11.4-0.7,24.5-12.1,29.2C521.6,321.7,518.7,322.3,515.8,322.3L515.8,322.3
			z M515.8,289.7c-5.6,0-10.2,4.6-10.2,10.2c0,5.6,4.6,10.2,10.2,10.2c5.6,0,10.2-4.6,10.2-10.2C526,294.3,521.4,289.7,515.8,289.7z
			"/>
		<path fill="#003050" d="M544.5,321.4c-1.4,0-2.5-1.1-2.5-2.5v-38c0-1.4,1.1-2.5,2.5-2.5h8.7c1.4,0,2.5,1.1,2.5,2.5v38
			c0,1.4-1.1,2.5-2.5,2.5H544.5z"/>
		<path fill="#003050" d="M548.9,272.5c-3.8,0-6.8-3.1-6.8-6.8c0-3.8,3.1-6.8,6.8-6.8c3.8,0,6.8,3.1,6.8,6.8
			C555.7,269.4,552.6,272.5,548.9,272.5z"/>
	</g>
</g>
</svg>
